General
Complete name                    : D:VideosShows RipFernando e Sorocaba - Acústico (2010) DvdRip CoGuMaS.avi
Format                           : AVI
Format/Info                      : Audio Video Interleave
Format profile                   : OpenDML
File size                        : 1.14 GiB
Duration                         : 57mn 26s
Overall bit rate                 : 2 844 Kbps
Writing application              : MEncoder SVN-r30881(20100311-gcc4.3.3)
Writing library                  : MPlayer

Video
ID                               : 0
Format                           : MPEG-4 Visual
Format profile                   : Advanced Simple@L5
Format settings, BVOP            : 2
Format settings, QPel            : No
Format settings, GMC             : No warppoints
Format settings, Matrix          : Default (H.263)
Codec ID                         : XVID
Codec ID/Hint                    : XviD
Duration                         : 57mn 26s
Bit rate                         : 2 391 Kbps
Width                            : 720 pixels
Height                           : 480 pixels
Display aspect ratio             : 16:9
Frame rate                       : 24.000 fps
Standard                         : NTSC
Color space                      : YUV
Chroma subsampling               : 4:2:0
Bit depth                        : 8 bits
Scan type                        : Progressive
Compression mode                 : Lossy
Bits/(Pixel*Frame)               : 0.288
Stream size                      : 982 MiB (84%)
Writing library                  : XviD 1.2.1 (UTC 2008-12-04)

Audio
ID                               : 1
Format                           : AC-3
Format/Info                      : Audio Coding 3
Mode extension                   : CM (complete main)
Codec ID                         : 2000
Duration                         : 57mn 16s
Bit rate mode                    : Constant
Bit rate                         : 448 Kbps
Channel(s)                       : 2 channels
Channel positions                : Front: L R
Sampling rate                    : 48.0 KHz
Bit depth                        : 16 bits
Compression mode                 : Lossy
Delay relative to video          : 42ms
Stream size                      : 184 MiB (16%)
Alignment                        : Split accross interleaves
Interleave, duration             : 501 ms (12.03 video frames)
Interleave, preload duration     : 500 ms

COMENTEM E APROVEITEM! ENJOY IT!!